<?xml version="1.0" encoding="UTF-8" standalone="no"?>
<svg
   xmlns:dc="http://purl.org/dc/elements/1.1/"
   xmlns:cc="http://creativecommons.org/ns#"
   xmlns:rdf="http://www.w3.org/1999/02/22-rdf-syntax-ns#"
   xmlns:svg="http://www.w3.org/2000/svg"
   xmlns="http://www.w3.org/2000/svg"
   xmlns:sodipodi="http://sodipodi.sourceforge.net/DTD/sodipodi-0.dtd"
   xmlns:inkscape="http://www.inkscape.org/namespaces/inkscape"
   version="1.1"
   width="9.707999999999998in"
   height="4.2219999999999995in"
   viewBox=" 0 0 873.7199999999998 379.97999999999996"
   id="svg34"
   sodipodi:docname="midi2dmx_box.svg"
   inkscape:version="0.92.3 (2405546, 2018-03-11)">
  <metadata
     id="metadata40">
    <rdf:RDF>
      <cc:Work
         rdf:about="">
        <dc:format>image/svg+xml</dc:format>
        <dc:type
           rdf:resource="http://purl.org/dc/dcmitype/StillImage" />
        <dc:title></dc:title>
      </cc:Work>
    </rdf:RDF>
  </metadata>
  <defs
     id="defs38" />
  <sodipodi:namedview
     pagecolor="#ffffff"
     bordercolor="#666666"
     borderopacity="1"
     objecttolerance="10"
     gridtolerance="10"
     guidetolerance="10"
     inkscape:pageopacity="0"
     inkscape:pageshadow="2"
     inkscape:window-width="1853"
     inkscape:window-height="1025"
     id="namedview36"
     showgrid="true"
     inkscape:zoom="1.2761743"
     inkscape:cx="742.1715"
     inkscape:cy="276.87179"
     inkscape:window-x="67"
     inkscape:window-y="27"
     inkscape:window-maximized="1"
     inkscape:current-layer="svg34"
     showguides="true"
     inkscape:guide-bbox="true"
     inkscape:measure-start="897.12,310.176"
     inkscape:measure-end="837.12,310.176"
     inkscape:document-units="in">
    <inkscape:grid
       type="xygrid"
       id="grid42"
       units="in"
       spacingx="0.22499999"
       spacingy="0.22499999"
       originx="22.049999"
       originy="223.28999" />
    <sodipodi:guide
       position="818.54996,254.78999"
       orientation="0,1"
       id="guide44"
       inkscape:locked="false" />
  </sodipodi:namedview>
  <!-- Front-->
  <g
     transform="translate(22.5, 22.5) "
     id="g12">
    <polygon
       style="stroke:#000000; fill:none; stroke-width:0.9"
       points="0, 0 39.059999999999995, 0 39.059999999999995, 10.62 78.11999999999999, 10.62 78.11999999999999, 0 100.61999999999999, 0 100.61999999999999, 10.62 123.11999999999999, 10.62 123.11999999999999, 0 145.62, 0 145.62, 10.62 168.12, 10.62 168.12, 0 190.62, 0 190.62, 10.62 213.12, 10.62 213.12, 0 235.62, 0 235.62, 10.62 274.67999999999995, 10.62 274.67999999999995, 0 313.73999999999995, 0 313.73999999999995, 26.748 303.11999999999995, 26.748 303.11999999999995, 53.496 313.73999999999995, 53.496 313.73999999999995, 80.244 303.11999999999995, 80.244 303.11999999999995, 106.992 313.73999999999995, 106.992 313.74, 133.74 274.67999999999995, 133.74 274.67999999999995, 123.12 235.62, 123.12 235.62, 133.74 213.12, 133.74 213.12, 123.12 190.62, 123.12 190.62, 133.74 168.12, 133.74 168.12, 123.12 145.62, 123.12 145.62, 133.74 123.11999999999999, 133.74 123.11999999999999, 123.12 100.61999999999999, 123.12 100.61999999999999, 133.74 78.11999999999999, 133.74 78.11999999999999, 123.12 39.059999999999995, 123.12 39.059999999999995, 133.74 0, 133.74 0, 106.992 10.62, 106.992 10.62, 80.244 0, 80.244 0, 53.496 10.62, 53.496 10.62, 26.748 0, 26.748 "
       id="polygon10" />
  </g>
  <!-- Back-->
  <g
     transform="translate(336.23999999999995, 22.5) "
     id="g16">
    <polygon
       style="stroke:#000000; fill:none; stroke-width:0.9"
       points="0, 0 39.059999999999995, 0 39.059999999999995, 10.62 78.11999999999999, 10.62 78.11999999999999, 0 100.61999999999999, 0 100.61999999999999, 10.62 123.11999999999999, 10.62 123.11999999999999, 0 145.62, 0 145.62, 10.62 168.12, 10.62 168.12, 0 190.62, 0 190.62, 10.62 213.12, 10.62 213.12, 0 235.62, 0 235.62, 10.62 274.67999999999995, 10.62 274.67999999999995, 0 313.73999999999995, 0 313.73999999999995, 26.748 303.11999999999995, 26.748 303.11999999999995, 53.496 313.73999999999995, 53.496 313.73999999999995, 80.244 303.11999999999995, 80.244 303.11999999999995, 106.992 313.73999999999995, 106.992 313.74, 133.74 274.67999999999995, 133.74 274.67999999999995, 123.12 235.62, 123.12 235.62, 133.74 213.12, 133.74 213.12, 123.12 190.62, 123.12 190.62, 133.74 168.12, 133.74 168.12, 123.12 145.62, 123.12 145.62, 133.74 123.11999999999999, 133.74 123.11999999999999, 123.12 100.61999999999999, 123.12 100.61999999999999, 133.74 78.11999999999999, 133.74 78.11999999999999, 123.12 39.059999999999995, 123.12 39.059999999999995, 133.74 0, 133.74 0, 106.992 10.62, 106.992 10.62, 80.244 0, 80.244 0, 53.496 10.62, 53.496 10.62, 26.748 0, 26.748 "
       id="polygon14" />
  </g>
  <!-- Left-->
  <g
     transform="translate(649.9799999999999, 22.5) "
     id="g20">
    <polygon
       style="stroke:#000000; fill:none; stroke-width:0.9"
       points="10.62, 0 33.434999999999995, 0 33.434999999999995, 10.62 66.86999999999999, 10.62 66.86999999999999, 0 89.36999999999999, 0 89.36999999999999, 10.62 111.86999999999999, 10.62 111.86999999999999, 0 134.37, 0 134.37, 10.62 167.80499999999998, 10.62 167.80499999999998, 0 190.61999999999998, 0 190.61999999999998, 26.748 201.23999999999998, 26.748 201.23999999999998, 53.496 190.61999999999998, 53.496 190.61999999999998, 80.244 201.23999999999998, 80.244 201.23999999999998, 106.992 190.61999999999998, 106.992 190.61999999999998, 133.74 167.80499999999998, 133.74 167.80499999999998, 123.12 134.37, 123.12 134.37, 133.74 111.86999999999999, 133.74 111.86999999999999, 123.12 89.36999999999999, 123.12 89.36999999999999, 133.74 66.86999999999999, 133.74 66.86999999999999, 123.12 33.434999999999995, 123.12 33.434999999999995, 133.74 10.62, 133.74 10.62, 106.992 0, 106.992 0, 80.244 10.62, 80.244 10.62, 53.496 0, 53.496 0, 26.748 10.62, 26.748 "
       id="polygon18" />
  </g>
  <!-- Right-->
  <g
     transform="translate(649.9799999999999, 156.24) "
     id="g24">
    <polygon
       style="stroke:#000000; fill:none; stroke-width:0.9"
       points="10.62, 0 33.434999999999995, 0 33.434999999999995, 10.62 66.86999999999999, 10.62 66.86999999999999, 0 89.36999999999999, 0 89.36999999999999, 10.62 111.86999999999999, 10.62 111.86999999999999, 0 134.37, 0 134.37, 10.62 167.80499999999998, 10.62 167.80499999999998, 0 190.61999999999998, 0 190.61999999999998, 26.748 201.23999999999998, 26.748 201.23999999999998, 53.496 190.61999999999998, 53.496 190.61999999999998, 80.244 201.23999999999998, 80.244 201.23999999999998, 106.992 190.61999999999998, 106.992 190.61999999999998, 133.74 167.80499999999998, 133.74 167.80499999999998, 123.12 134.37, 123.12 134.37, 133.74 111.86999999999999, 133.74 111.86999999999999, 123.12 89.36999999999999, 123.12 89.36999999999999, 133.74 66.86999999999999, 133.74 66.86999999999999, 123.12 33.434999999999995, 123.12 33.434999999999995, 133.74 10.62, 133.74 10.62, 106.992 0, 106.992 0, 80.244 10.62, 80.244 10.62, 53.496 0, 53.496 0, 26.748 10.62, 26.748 "
       id="polygon22" />
  </g>
  <!-- Top-->
  <g
     transform="translate(22.5, 156.24) "
     id="g28">
    <polygon
       style="stroke:#000000; fill:none; stroke-width:0.9"
       points="10.62, 10.62 39.059999999999995, 10.62 39.059999999999995, 0 78.11999999999999, 0 78.11999999999999, 10.62 100.61999999999999, 10.62 100.61999999999999, 0 123.11999999999999, 0 123.11999999999999, 10.62 145.62, 10.62 145.62, 0 168.12, 0 168.12, 10.62 190.62, 10.62 190.62, 0 213.12, 0 213.12, 10.62 235.62, 10.62 235.62, 0 274.67999999999995, 0 274.67999999999995, 10.62 303.11999999999995, 10.62 303.11999999999995, 33.434999999999995 313.73999999999995, 33.434999999999995 313.73999999999995, 66.86999999999999 303.11999999999995, 66.86999999999999 303.11999999999995, 89.36999999999999 313.73999999999995, 89.36999999999999 313.73999999999995, 111.86999999999999 303.11999999999995, 111.86999999999999 303.11999999999995, 134.37 313.73999999999995, 134.37 313.73999999999995, 167.80499999999998 303.11999999999995, 167.80499999999998 303.12, 190.61999999999998 274.67999999999995, 190.61999999999998 274.67999999999995, 201.23999999999998 235.62, 201.23999999999998 235.62, 190.61999999999998 213.12, 190.61999999999998 213.12, 201.23999999999998 190.62, 201.23999999999998 190.62, 190.61999999999998 168.12, 190.61999999999998 168.12, 201.23999999999998 145.62, 201.23999999999998 145.62, 190.61999999999998 123.11999999999999, 190.61999999999998 123.11999999999999, 201.23999999999998 100.61999999999999, 201.23999999999998 100.61999999999999, 190.61999999999998 78.11999999999999, 190.61999999999998 78.11999999999999, 201.23999999999998 39.059999999999995, 201.23999999999998 39.059999999999995, 190.61999999999998 10.62, 190.61999999999998 10.62, 167.80499999999998 0, 167.80499999999998 0, 134.37 10.62, 134.37 10.62, 111.86999999999999 0, 111.86999999999999 0, 89.36999999999999 10.62, 89.36999999999999 10.62, 66.86999999999999 0, 66.86999999999999 0, 33.434999999999995 10.62, 33.434999999999995 "
       id="polygon26" />
  </g>
  <!-- Bottom-->
  <g
     transform="translate(336.23999999999995, 156.24) "
     id="g32">
    <polygon
       style="stroke:#000000; fill:none; stroke-width:0.9"
       points="10.62, 10.62 39.059999999999995, 10.62 39.059999999999995, 0 78.11999999999999, 0 78.11999999999999, 10.62 100.61999999999999, 10.62 100.61999999999999, 0 123.11999999999999, 0 123.11999999999999, 10.62 145.62, 10.62 145.62, 0 168.12, 0 168.12, 10.62 190.62, 10.62 190.62, 0 213.12, 0 213.12, 10.62 235.62, 10.62 235.62, 0 274.67999999999995, 0 274.67999999999995, 10.62 303.11999999999995, 10.62 303.11999999999995, 33.434999999999995 313.73999999999995, 33.434999999999995 313.73999999999995, 66.86999999999999 303.11999999999995, 66.86999999999999 303.11999999999995, 89.36999999999999 313.73999999999995, 89.36999999999999 313.73999999999995, 111.86999999999999 303.11999999999995, 111.86999999999999 303.11999999999995, 134.37 313.73999999999995, 134.37 313.73999999999995, 167.80499999999998 303.11999999999995, 167.80499999999998 303.12, 190.61999999999998 274.67999999999995, 190.61999999999998 274.67999999999995, 201.23999999999998 235.62, 201.23999999999998 235.62, 190.61999999999998 213.12, 190.61999999999998 213.12, 201.23999999999998 190.62, 201.23999999999998 190.62, 190.61999999999998 168.12, 190.61999999999998 168.12, 201.23999999999998 145.62, 201.23999999999998 145.62, 190.61999999999998 123.11999999999999, 190.61999999999998 123.11999999999999, 201.23999999999998 100.61999999999999, 201.23999999999998 100.61999999999999, 190.61999999999998 78.11999999999999, 190.61999999999998 78.11999999999999, 201.23999999999998 39.059999999999995, 201.23999999999998 39.059999999999995, 190.61999999999998 10.62, 190.61999999999998 10.62, 167.80499999999998 0, 167.80499999999998 0, 134.37 10.62, 134.37 10.62, 111.86999999999999 0, 111.86999999999999 0, 89.36999999999999 10.62, 89.36999999999999 10.62, 66.86999999999999 0, 66.86999999999999 0, 33.434999999999995 10.62, 33.434999999999995 "
       id="polygon30" />
  </g>
  <circle
     id="path46"
     cx="743.07599"
     cy="85.733932"
     style="stroke-width:0.46875"
     r="39.375" />
  <rect
     id="rect48"
     width="143.99998"
     height="26.999998"
     x="679.04999"
     y="237.69"
     style="stroke-width:0.9375" />
</svg>
